{
 "id": 1253536,
 "bug_id": 269973,
 "attachment_id": 0,
 "creation_time": "2023-04-02T12:11:47Z",
 "creator": "Alexander88207@protonmail.com",
 "text": "ffmpeg -ss 5 -i '/mnt/CD Collection/ABBA-ABBA GOLD - Greatest Hits (Japan Import) [SHM]/01.Dancing Queen.flac' -f null /dev/null\n\nffmpeg version 6.0 Copyright (c) 2000-2023 the FFmpeg developers\n  built with FreeBSD clang version 15.0.7 (https://github.com/llvm/llvm-project.git llvmorg-15.0.7-0-g8dfdcc7b7bf6)\n  configuration: --prefix=/usr/local --mandir=/usr/local/man --datadir=/usr/local/share/ffmpeg --docdir=/usr/local/share/doc/ffmpeg --pkgconfigdir=/usr/local/libdata/pkgconfig --disable-static --disable-libcelt --enable-shared --enable-pic --enable-gpl --cc=cc --cxx=c++ --disable-alsa --disable-libopencore-amrnb --disable-libopencore-amrwb --enable-libaom --disable-libaribb24 --enable-asm --enable-libass --disable-libbs2b --disable-libcaca --disable-libcdio --disable-libcodec2 --enable-libdav1d --disable-libdavs2 --disable-libdc1394 --disable-debug --enable-htmlpages --enable-libdrm --disable-libfdk-aac --disable-libflite --enable-fontconfig --enable-libfreetype --enable-frei0r --disable-libfribidi --disable-gcrypt --disable-libglslang --disable-libgme --enable-gmp --enable-gnutls --enable-version3 --disable-libgsm --enable-iconv --disable-libilbc --disable-libjack --enable-libjxl --disable-libklvanc --disable-libkvazaar --disable-ladspa --enable-libmp3lame --enable-lcms2 --disable-liblensfun --disable-libbluray --enable-libplacebo --disable-librsvg --disable-librtmp --enable-libxml2 --disable-lto --disable-lv2 --disable-mbedtls --disable-libmfx --disable-libmodplug --disable-libmysofa --enable-network --disable-nonfree --enable-nvenc --disable-openal --disable-opencl --disable-opengl --disable-libopenh264 --disable-libopenjpeg --disable-libopenmpt --disable-openssl --disable-libopenvino --enable-optimizations --enable-libopus --disable-pocketsphinx --disable-libpulse --disable-librabbitmq --disable-librav1e --disable-librist --enable-runtime-cpudetect --disable-librubberband --disable-sdl2 --enable-libshaderc --disable-libsmbclient --disable-libsnappy --disable-sndio --disable-libsoxr --disable-libspeex --disable-libsrt --disable-libssh --enable-libsvtav1 --disable-libtensorflow --disable-libtesseract --disable-libtheora --disable-libtwolame --disable-libuavs3d --enable-libv4l2 --enable-vaapi --disable-vapoursynth --enable-vdpau --disable-libvidstab --enable-libvmaf --enable-libvorbis --disable-libvo-amrwbenc --disable-libvpl --enable-libvpx --enable-vulkan --enable-libwebp --enable-libx264 --enable-libx265 --disable-libxavs2 --enable-libxcb --disable-libxvid --disable-outdev=xv --disable-libzimg --disable-libzmq --disable-libzvbi\n  libavutil      58.  2.100 / 58.  2.100\n  libavcodec     60.  3.100 / 60.  3.100\n  libavformat    60.  3.100 / 60.  3.100\n  libavdevice    60.  1.100 / 60.  1.100\n  libavfilter     9.  3.100 /  9.  3.100\n  libswscale      7.  1.100 /  7.  1.100\n  libswresample   4. 10.100 /  4. 10.100\n  libpostproc    57.  1.100 / 57.  1.100\nInput #0, flac, from '/mnt/CD Collection/ABBA-ABBA GOLD - Greatest Hits (Japan Import) [SHM]/01.Dancing Queen.flac':\n  Metadata:\n    ARTIST          : ABBA\n    ALBUM           : ABBA GOLD - Greatest Hits (Japan Import) [SHM]\n    TITLE           : Dancing Queen\n    DATE            : 2014\n    GENRE           : Pop\n    track           : 01\n    CDDB            : 05128b13\n    COMMENT         : abcde version 2.9.3 on FreeBSD\n    TRACKTOTAL      : 19\n  Duration: 00:03:53.09, start: 0.000000, bitrate: 1064 kb/s\n  Stream #0:0: Audio: flac, 44100 Hz, stereo, s16\n  Stream #0:1: Video: mjpeg (Baseline), yuvj420p(pc, bt470bg/unknown/unknown), 300x300 [SAR 1:1 DAR 1:1], 90k tbr, 90k tbn (attached pic)\n    Metadata:\n      comment         : Cover (front)\nStream mapping:\n  Stream #0:1 -\u003e #0:0 (mjpeg (native) -\u003e wrapped_avframe (native))\n  Stream #0:0 -\u003e #0:1 (flac (native) -\u003e pcm_s16le (native))\nPress [q] to stop, [?] for help\nOutput #0, null, to '/dev/null':\n  Metadata:\n    ARTIST          : ABBA\n    ALBUM           : ABBA GOLD - Greatest Hits (Japan Import) [SHM]\n    TITLE           : Dancing Queen\n    DATE            : 2014\n    GENRE           : Pop\n    track           : 01\n    CDDB            : 05128b13\n    COMMENT         : abcde version 2.9.3 on FreeBSD\n    TRACKTOTAL      : 19\n    encoder         : Lavf60.3.100\n  Stream #0:0: Video: wrapped_avframe, yuvj420p, 300x300 [SAR 1:1 DAR 1:1], q=2-31, 200 kb/s, 90k fps, 90k tbn (attached pic)\n    Metadata:\n      comment         : Cover (front)\n      encoder         : Lavc60.3.100 wrapped_avframe\n  Stream #0:1: Audio: pcm_s16le, 44100 Hz, stereo, s16, 1411 kb/s\n    Metadata:\n      encoder         : Lavc60.3.100 pcm_s16le\nframe=    0 fps=0.0 q=0.0 size=N/A time=00:03:48.03 bitrate=N/A speed=3.59e+03x frame=    0 fps=0.0 q=0.0 Lsize=N/A time=00:03:48.03 bitrate=N/A speed=2.94e+03x    \nvideo:0kB audio:39293kB subtitle:0kB other streams:0kB global headers:0kB muxing overhead: unknown"
}